<svg width="809" height="818" viewBox="0 0 809 818" fill="none" xmlns="http://www.w3.org/2000/svg">
<path d="M1165.17 -16.2462H1090.74H518.891V166.548H1090.9V213.328H712.393V396.123H1074.75C1003.15 696.118 727.713 720.257 647.781 720.757V720.257C647.781 720.257 643.951 720.59 636.791 720.757C629.63 720.59 625.8 720.257 625.8 720.257V720.757C536.376 720.091 201.995 689.958 182.844 276.424V-16.2462H0V326.035C0 326.035 5.99485 931.852 625.8 934.183V934.349C629.63 934.349 633.127 934.183 636.791 934.183C640.454 934.183 643.951 934.349 647.781 934.349V934.016C1267.75 931.686 1273.58 325.868 1273.58 325.868V-16.2462H1165.17Z" fill="white"/>
</svg>
