<svg width="733" height="1252" viewBox="0 0 733 1252" fill="none" xmlns="http://www.w3.org/2000/svg">
<mask id="mask0_107_787" style="mask-type:alpha" maskUnits="userSpaceOnUse" x="-275" y="252" width="793" height="639">
<path fill-rule="evenodd" clip-rule="evenodd" d="M-273.705 731.831C-271.095 790.493 -253.284 850.999 -234.673 890.721L-75.7232 816.247C-83.9194 798.754 -92.7872 770.376 -96.5947 742.761C-94.9183 744.937 -93.1641 747.219 -91.3259 749.614C-90.9752 750.071 -90.6198 750.534 -90.2597 751.003C-73.6066 772.707 -47.0072 807.373 -12.709 830.529C6.4366 843.455 30.8555 854.972 60.2572 858.364C90.2951 861.83 119.589 856.118 146.773 843.382C206.62 815.341 233.254 764.99 240.674 715.842C245.812 681.809 242.014 646.282 238.143 619.431C253.108 638.577 272 661.291 292.607 678.573C321.176 702.53 377.406 735.321 443.479 704.363C473.512 690.292 495.519 666.609 507.26 637.13C517.667 611.002 517.941 585.524 516.751 567.855C515.526 549.669 512.051 531.621 509.087 517.344C507.844 511.359 506.704 506.075 505.632 501.11C503.757 492.421 502.091 484.705 500.455 475.905C495.382 448.615 495.783 434.796 497.873 427.451C497.897 427.366 497.921 427.263 497.949 427.144C498.376 425.322 499.73 419.549 516.552 411.667L442.078 252.717C382.298 280.726 344.558 324.879 329.042 379.415C322.869 401.109 320.787 422.659 320.904 442.73C312.461 433.699 303.444 424.963 294.024 417.293C263.807 392.692 207.68 362.542 142.546 393.06C81.1352 421.833 59.046 475.759 54.4491 522.049C50.89 557.889 57.0269 596.929 61.1123 622.919C61.4793 625.254 61.8298 627.484 62.1552 629.596C64.5675 645.257 66.1683 657.257 67.009 666.666C61.807 660.526 55.5642 652.698 47.9098 642.727C46.5262 640.925 45.0551 638.992 43.5007 636.95C28.0659 616.676 4.42468 585.622 -23.2255 564.078C-39.9989 551.009 -62.8309 537.492 -91.6284 532.103C-121.898 526.438 -151.949 531.042 -179.592 543.994C-267.742 585.296 -275.958 681.193 -273.705 731.831Z" fill="url(#paint0_linear_107_787)"/>
</mask>
<g mask="url(#mask0_107_787)">
<g filter="url(#filter0_ii_107_787)">
<path fill-rule="evenodd" clip-rule="evenodd" d="M-273.705 731.83C-271.094 790.493 -253.284 850.999 -234.673 890.721L-75.723 816.246C-83.9192 798.753 -92.787 770.375 -96.5945 742.76C-94.9181 744.937 -93.1639 747.219 -91.3258 749.613C-90.975 750.07 -90.6196 750.534 -90.2595 751.003C-73.6064 772.706 -47.007 807.372 -12.7088 830.529C6.43674 843.455 30.8557 854.972 60.2574 858.364C90.2953 861.83 119.589 856.118 146.773 843.381C206.62 815.34 233.254 764.989 240.674 715.841C245.812 681.809 242.014 646.282 238.143 619.431C253.108 638.576 272 661.291 292.608 678.572C321.176 702.529 377.406 735.321 443.479 704.363C473.512 690.291 495.519 666.609 507.261 637.13C517.667 611.002 517.942 585.524 516.751 567.855C515.526 549.669 512.051 531.62 509.087 517.344C507.844 511.358 506.704 506.075 505.632 501.109C503.757 492.42 502.091 484.705 500.455 475.905C495.382 448.615 495.783 434.795 497.873 427.451C497.897 427.365 497.921 427.263 497.949 427.143C498.377 425.322 499.73 419.548 516.553 411.666L442.078 252.717C382.298 280.726 344.558 324.879 329.042 379.415C322.87 401.108 320.787 422.658 320.905 442.73C312.461 433.698 303.445 424.962 294.025 417.293C263.807 392.692 207.68 362.541 142.546 393.059C81.1354 421.833 59.0462 475.758 54.4493 522.049C50.8902 557.888 57.0271 596.929 61.1125 622.919C61.4795 625.254 61.8299 627.483 62.1553 629.596C64.5677 645.257 66.1685 657.256 67.0092 666.666C61.8072 660.525 55.5644 652.697 47.91 642.726C46.5264 640.924 45.0552 638.992 43.5008 636.95C28.066 616.675 4.42484 585.621 -23.2253 564.078C-39.9987 551.009 -62.8307 537.491 -91.6282 532.102C-121.898 526.438 -151.949 531.042 -179.592 543.994C-267.742 585.295 -275.958 681.193 -273.705 731.83Z" fill="url(#paint1_radial_107_787)"/>
<path fill-rule="evenodd" clip-rule="evenodd" d="M-273.705 731.83C-271.094 790.493 -253.284 850.999 -234.673 890.721L-75.723 816.246C-83.9192 798.753 -92.787 770.375 -96.5945 742.76C-94.9181 744.937 -93.1639 747.219 -91.3258 749.613C-90.975 750.07 -90.6196 750.534 -90.2595 751.003C-73.6064 772.706 -47.007 807.372 -12.7088 830.529C6.43674 843.455 30.8557 854.972 60.2574 858.364C90.2953 861.83 119.589 856.118 146.773 843.381C206.62 815.34 233.254 764.989 240.674 715.841C245.812 681.809 242.014 646.282 238.143 619.431C253.108 638.576 272 661.291 292.608 678.572C321.176 702.529 377.406 735.321 443.479 704.363C473.512 690.291 495.519 666.609 507.261 637.13C517.667 611.002 517.942 585.524 516.751 567.855C515.526 549.669 512.051 531.62 509.087 517.344C507.844 511.358 506.704 506.075 505.632 501.109C503.757 492.42 502.091 484.705 500.455 475.905C495.382 448.615 495.783 434.795 497.873 427.451C497.897 427.365 497.921 427.263 497.949 427.143C498.377 425.322 499.73 419.548 516.553 411.666L442.078 252.717C382.298 280.726 344.558 324.879 329.042 379.415C322.87 401.108 320.787 422.658 320.905 442.73C312.461 433.698 303.445 424.962 294.025 417.293C263.807 392.692 207.68 362.541 142.546 393.059C81.1354 421.833 59.0462 475.758 54.4493 522.049C50.8902 557.888 57.0271 596.929 61.1125 622.919C61.4795 625.254 61.8299 627.483 62.1553 629.596C64.5677 645.257 66.1685 657.256 67.0092 666.666C61.8072 660.525 55.5644 652.697 47.91 642.726C46.5264 640.924 45.0552 638.992 43.5008 636.95C28.066 616.675 4.42484 585.621 -23.2253 564.078C-39.9987 551.009 -62.8307 537.491 -91.6282 532.102C-121.898 526.438 -151.949 531.042 -179.592 543.994C-267.742 585.295 -275.958 681.193 -273.705 731.83Z" fill="#1F2E7E" fill-opacity="0.2"/>
</g>
</g>
<defs>
<filter id="filter0_ii_107_787" x="-310.183" y="252.717" width="879.356" height="701.307" filterUnits="userSpaceOnUse" color-interpolation-filters="sRGB">
<feFlood flood-opacity="0" result="BackgroundImageFix"/>
<feBlend mode="normal" in="SourceGraphic" in2="BackgroundImageFix" result="shape"/>
<feColorMatrix in="SourceAlpha" type="matrix" values="0 0 0 0 0 0 0 0 0 0 0 0 0 0 0 0 0 0 127 0" result="hardAlpha"/>
<feOffset dx="-36.173" dy="63.3028"/>
<feGaussianBlur stdDeviation="76.8677"/>
<feComposite in2="hardAlpha" operator="arithmetic" k2="-1" k3="1"/>
<feColorMatrix type="matrix" values="0 0 0 0 1 0 0 0 0 1 0 0 0 0 1 0 0 0 0.87 0"/>
<feBlend mode="lighten" in2="shape" result="effect1_innerShadow_107_787"/>
<feColorMatrix in="SourceAlpha" type="matrix" values="0 0 0 0 0 0 0 0 0 0 0 0 0 0 0 0 0 0 127 0" result="hardAlpha"/>
<feOffset dx="51.9376" dy="30.297"/>
<feGaussianBlur stdDeviation="30.297"/>
<feComposite in2="hardAlpha" operator="arithmetic" k2="-1" k3="1"/>
<feColorMatrix type="matrix" values="0 0 0 0 0.384314 0 0 0 0 0.00392157 0 0 0 0 0.439216 0 0 0 0.9 0"/>
<feBlend mode="multiply" in2="effect1_innerShadow_107_787" result="effect2_innerShadow_107_787"/>
</filter>
<linearGradient id="paint0_linear_107_787" x1="567.606" y1="394.572" x2="-252.354" y2="739.745" gradientUnits="userSpaceOnUse">
<stop offset="0.132716" stop-opacity="0"/>
<stop offset="1"/>
</linearGradient>
<radialGradient id="paint1_radial_107_787" cx="0" cy="0" r="1" gradientTransform="matrix(638.981 -367.056 747.471 -1455.48 -364.378 783.849)" gradientUnits="userSpaceOnUse">
<stop stop-color="#F7C2FF"/>
<stop offset="0.635171" stop-color="#620170"/>
<stop offset="1" stop-color="#620170"/>
</radialGradient>
</defs>
</svg>
