<svg width="644" height="1252" viewBox="0 0 644 1252" fill="none" xmlns="http://www.w3.org/2000/svg">
<mask id="mask0_107_791" style="mask-type:alpha" maskUnits="userSpaceOnUse" x="215" y="252" width="793" height="639">
<path fill-rule="evenodd" clip-rule="evenodd" d="M1006.71 731.834C1004.1 790.496 986.293 851.003 967.682 890.725L808.732 816.25C816.928 798.757 825.796 770.379 829.603 742.764C827.927 744.94 826.173 747.222 824.335 749.617C823.984 750.074 823.628 750.537 823.268 751.006C806.615 772.71 780.016 807.376 745.717 830.532C726.572 843.458 702.153 854.976 672.751 858.368C642.713 861.833 613.418 856.122 586.235 843.385C526.387 815.344 499.753 764.993 492.333 715.845C487.196 681.812 490.994 646.285 494.864 619.433C479.899 638.579 461.007 661.294 440.4 678.575C411.831 702.532 355.601 735.324 289.527 704.366C259.495 690.294 237.487 666.612 225.746 637.133C215.339 611.005 215.065 585.527 216.255 567.857C217.48 549.671 220.955 531.623 223.919 517.346C225.162 511.361 226.302 506.077 227.374 501.112C229.25 492.423 230.915 484.707 232.551 475.907C237.624 448.617 237.223 434.797 235.133 427.453C235.109 427.368 235.085 427.265 235.057 427.145C234.63 425.324 233.276 419.55 216.454 411.668L290.928 252.718C350.709 280.727 388.449 324.881 403.965 379.417C410.138 401.11 412.22 422.66 412.103 442.732C420.546 433.7 429.563 424.964 438.983 417.295C469.2 392.694 525.328 362.543 590.462 393.061C651.873 421.835 673.962 475.761 678.559 522.051C682.118 557.891 675.981 596.932 671.896 622.922C671.529 625.257 671.178 627.486 670.853 629.599C668.44 645.26 666.84 657.259 665.999 666.669C671.201 660.528 677.444 652.7 685.098 642.729C686.482 640.927 687.953 638.995 689.507 636.953C704.942 616.678 728.584 585.624 756.234 564.08C773.007 551.011 795.839 537.494 824.637 532.105C854.907 526.44 884.958 531.044 912.601 543.996C1000.75 585.298 1008.97 681.196 1006.71 731.834Z" fill="url(#paint0_linear_107_791)"/>
</mask>
<g mask="url(#mask0_107_791)">
<g filter="url(#filter0_ii_107_791)">
<path fill-rule="evenodd" clip-rule="evenodd" d="M1006.71 731.833C1004.1 790.496 986.293 851.002 967.682 890.724L808.732 816.249C816.928 798.756 825.796 770.378 829.603 742.763C827.927 744.939 826.172 747.222 824.334 749.616C823.984 750.073 823.628 750.536 823.268 751.006C806.615 772.709 780.015 807.375 745.717 830.532C726.571 843.458 702.152 854.975 672.751 858.367C642.713 861.833 613.418 856.121 586.235 843.385C526.387 815.344 499.753 764.992 492.333 715.844C487.195 681.812 490.993 646.284 494.864 619.433C479.899 638.579 461.007 661.293 440.399 678.575C411.831 702.532 355.601 735.323 289.527 704.365C259.494 690.294 237.487 666.611 225.746 637.132C215.339 611.004 215.065 585.526 216.255 567.857C217.48 549.671 220.955 531.622 223.919 517.346C225.162 511.36 226.302 506.077 227.374 501.111C229.249 492.422 230.915 484.707 232.551 475.906C237.624 448.616 237.223 434.797 235.133 427.452C235.109 427.367 235.085 427.264 235.057 427.145C234.63 425.323 233.276 419.55 216.454 411.668L290.928 252.718C350.709 280.727 388.449 324.88 403.965 379.416C410.137 401.11 412.22 422.66 412.102 442.731C420.546 433.7 429.562 424.964 438.982 417.295C469.2 392.693 525.327 362.543 590.461 393.061C651.873 421.834 673.962 475.76 678.559 522.051C682.118 557.89 675.981 596.931 671.895 622.921C671.528 625.256 671.178 627.486 670.853 629.598C668.44 645.259 666.839 657.259 665.999 666.669C671.201 660.528 677.444 652.7 685.098 642.729C686.482 640.927 687.953 638.994 689.507 636.952C704.942 616.678 728.583 585.624 756.234 564.08C773.007 551.011 795.839 537.493 824.637 532.104C854.907 526.44 884.958 531.044 912.601 543.996C1000.75 585.298 1008.97 681.195 1006.71 731.833Z" fill="url(#paint1_radial_107_791)"/>
<path fill-rule="evenodd" clip-rule="evenodd" d="M1006.71 731.833C1004.1 790.496 986.293 851.002 967.682 890.724L808.732 816.249C816.928 798.756 825.796 770.378 829.603 742.763C827.927 744.939 826.172 747.222 824.334 749.616C823.984 750.073 823.628 750.536 823.268 751.006C806.615 772.709 780.015 807.375 745.717 830.532C726.571 843.458 702.152 854.975 672.751 858.367C642.713 861.833 613.418 856.121 586.235 843.385C526.387 815.344 499.753 764.992 492.333 715.844C487.195 681.812 490.993 646.284 494.864 619.433C479.899 638.579 461.007 661.293 440.399 678.575C411.831 702.532 355.601 735.323 289.527 704.365C259.494 690.294 237.487 666.611 225.746 637.132C215.339 611.004 215.065 585.526 216.255 567.857C217.48 549.671 220.955 531.622 223.919 517.346C225.162 511.36 226.302 506.077 227.374 501.111C229.249 492.422 230.915 484.707 232.551 475.906C237.624 448.616 237.223 434.797 235.133 427.452C235.109 427.367 235.085 427.264 235.057 427.145C234.63 425.323 233.276 419.55 216.454 411.668L290.928 252.718C350.709 280.727 388.449 324.88 403.965 379.416C410.137 401.11 412.22 422.66 412.102 442.731C420.546 433.7 429.562 424.964 438.982 417.295C469.2 392.693 525.327 362.543 590.461 393.061C651.873 421.834 673.962 475.76 678.559 522.051C682.118 557.89 675.981 596.931 671.895 622.921C671.528 625.256 671.178 627.486 670.853 629.598C668.44 645.259 666.839 657.259 665.999 666.669C671.201 660.528 677.444 652.7 685.098 642.729C686.482 640.927 687.953 638.994 689.507 636.952C704.942 616.678 728.583 585.624 756.234 564.08C773.007 551.011 795.839 537.493 824.637 532.104C854.907 526.44 884.958 531.044 912.601 543.996C1000.75 585.298 1008.97 681.195 1006.71 731.833Z" fill="#1F2E7E" fill-opacity="0.2"/>
</g>
</g>
<defs>
<filter id="filter0_ii_107_791" x="179.598" y="252.718" width="879.359" height="701.309" filterUnits="userSpaceOnUse" color-interpolation-filters="sRGB">
<feFlood flood-opacity="0" result="BackgroundImageFix"/>
<feBlend mode="normal" in="SourceGraphic" in2="BackgroundImageFix" result="shape"/>
<feColorMatrix in="SourceAlpha" type="matrix" values="0 0 0 0 0 0 0 0 0 0 0 0 0 0 0 0 0 0 127 0" result="hardAlpha"/>
<feOffset dx="-36.173" dy="63.3028"/>
<feGaussianBlur stdDeviation="76.8677"/>
<feComposite in2="hardAlpha" operator="arithmetic" k2="-1" k3="1"/>
<feColorMatrix type="matrix" values="0 0 0 0 1 0 0 0 0 1 0 0 0 0 1 0 0 0 0.87 0"/>
<feBlend mode="lighten" in2="shape" result="effect1_innerShadow_107_791"/>
<feColorMatrix in="SourceAlpha" type="matrix" values="0 0 0 0 0 0 0 0 0 0 0 0 0 0 0 0 0 0 127 0" result="hardAlpha"/>
<feOffset dx="51.9376" dy="30.297"/>
<feGaussianBlur stdDeviation="30.297"/>
<feComposite in2="hardAlpha" operator="arithmetic" k2="-1" k3="1"/>
<feColorMatrix type="matrix" values="0 0 0 0 0.384314 0 0 0 0 0.00392157 0 0 0 0 0.439216 0 0 0 0.9 0"/>
<feBlend mode="multiply" in2="effect1_innerShadow_107_791" result="effect2_innerShadow_107_791"/>
</filter>
<linearGradient id="paint0_linear_107_791" x1="165.4" y1="394.573" x2="985.364" y2="739.748" gradientUnits="userSpaceOnUse">
<stop offset="0.132716" stop-opacity="0"/>
<stop offset="1"/>
</linearGradient>
<radialGradient id="paint1_radial_107_791" cx="0" cy="0" r="1" gradientTransform="matrix(-638.984 -367.057 -747.473 -1455.49 1097.39 783.852)" gradientUnits="userSpaceOnUse">
<stop stop-color="#F7C2FF"/>
<stop offset="0.635171" stop-color="#620170"/>
<stop offset="1" stop-color="#620170"/>
</radialGradient>
</defs>
</svg>
