<svg width="1816" height="350" viewBox="0 0 1816 350" fill="none" xmlns="http://www.w3.org/2000/svg">
<g clip-path="url(#clip0_24_41)">
<path d="M538.603 168.469C521.105 200.287 507.429 225.063 492.63 251.992C460.482 232.288 459.62 198.025 437.889 171.57C437.889 209.482 437.889 244.037 437.889 279.577C411.511 279.577 387.944 279.577 361.379 279.577C382.698 246.518 377.415 210.139 377.565 174.49C377.715 139.57 382.811 103.811 360.63 70.3142C385.134 70.3142 408.664 70.3142 435.154 70.3142C455.199 95.9658 466.664 129.718 487.384 165.44C506.83 129.499 523.391 98.8119 539.052 69.8398C565.73 69.8398 589.297 69.8398 613.801 69.8398C586.712 122.128 601.624 176.898 597.877 230.062C596.641 247.613 608.069 261.15 613.277 279.541C590.346 282.606 565.842 279.431 538.603 281.292C538.603 245.022 538.603 210.467 538.603 168.469Z" fill="black"/>
<path d="M970.759 121.8C971.621 100.6 965.064 83.4501 950.526 69.9492H803.577C813.019 140.19 813.019 209.336 803.389 280.672C839.209 280.672 875.515 280.27 911.822 280.927C928.308 281.183 944.157 279.869 956.896 268.995C974.843 255.494 970.159 239.002 970.347 223.457C970.497 189.559 969.41 155.588 970.759 121.8ZM910.435 227.654C903.054 239.914 892.75 241.483 879.15 239.075V111.948C892.001 105.234 901.93 110.196 910.435 121.143V227.654Z" fill="black"/>
<path d="M1444.39 279.322C1437.16 269.944 1437.09 258.779 1427.79 252.393V191.64C1420.49 186.166 1410.78 178.868 1398.27 169.527C1419.63 170.768 1423.71 154.713 1425.13 147.087C1428.88 127.857 1426.41 107.423 1426.41 93.0834C1417.83 82.1368 1411.87 74.6931 1408.8 70.7158H1257.5C1273.5 105.818 1265.74 140.774 1266.27 174.928C1266.68 209.884 1272.15 245.241 1258.44 279.796H1335.06V192.88C1350.12 188.173 1359.23 192.807 1368.14 203.498V279.358H1444.39V279.322ZM1356.98 157.012C1349.6 153.545 1341.99 149.969 1335.73 146.977V110.379H1367.96C1366.16 126.288 1375.94 143.584 1356.98 157.012Z" fill="black"/>
<path d="M784.168 226.923C784.093 183.611 784.093 140.372 784.093 97.206C774.127 89.6528 775.513 74.583 762.662 68.7812H658.388C646.998 77.3196 638.305 83.7781 632.535 88.0838V256.224C641.378 267.316 647.335 274.687 653.105 281.985C694.957 275.453 737.483 291.509 773.79 268.229C786.117 255.823 784.168 241.227 784.168 226.923ZM724.032 228.31C717.063 238.417 707.546 242.212 691.622 239.074V112.787C702.263 105.161 712.792 112.787 724.032 108.153V228.31Z" fill="black"/>
<path d="M1512.81 149.859C1538.03 149.859 1560.43 149.859 1582.99 149.859C1601.23 164.71 1613.86 181.24 1614.35 206.088C1614.91 235.133 1611.42 261.369 1584.15 279.796C1541.81 279.796 1498.57 279.796 1454.17 279.796C1454.17 261.734 1454.17 244.511 1454.17 226.559C1457.43 223.421 1461.4 219.626 1463.99 217.108C1491.56 222.435 1513 243.818 1544.51 239.257C1544.51 223.53 1544.51 208.059 1544.51 191.201C1520 191.201 1496.44 191.201 1474.48 191.201C1459.53 177.7 1452.22 163.324 1452.82 145.006C1453.68 119.026 1448.44 91.8421 1472.98 69.9854C1514.76 69.9854 1558 69.9854 1603.33 69.9854C1603.33 86.9161 1603.33 105.088 1603.33 125.813C1584.75 126.069 1568.9 117.421 1551.89 111.51C1525.77 102.424 1514.12 111.327 1512.32 138.621C1512.13 141.248 1512.55 143.948 1512.81 149.859Z" fill="black"/>
<path d="M984.435 69.5479C1042.36 69.5479 1093.99 69.5479 1146.56 69.5479C1146.56 91.2587 1146.56 112.13 1146.56 135.082C1117.9 129.061 1097.93 103.19 1065.25 110.707C1061.58 122.238 1063.75 135.118 1064.05 149.385C1077.58 149.385 1089.87 149.385 1104 149.385C1104 163.433 1104 176.168 1104 190.399C1091.44 190.399 1079.19 190.399 1063.94 190.399C1064.02 220.21 1058.4 248.817 1078.07 278.336C1044.95 282.752 1017.52 279.322 986.945 281.256C988.294 256.297 998.86 234.44 996.312 210.832C993.839 188.1 995.076 164.856 995.975 141.905C996.912 118.26 995.338 95.0535 984.435 69.5479Z" fill="black"/>
<path d="M1748.89 111.656C1752.15 168.36 1740.95 224.443 1764.74 278.921C1735.59 278.921 1705.43 278.921 1674.48 278.921C1702.4 224.771 1684.97 167.666 1690.59 113.736C1682.54 106.986 1675.35 110.598 1668.98 109.722C1655.52 121.034 1644.77 135.228 1624.46 148.108C1620.79 119.1 1623.15 95.5281 1622.18 70.4238C1687 70.4238 1750.96 70.4238 1816 70.4238C1816 93.3023 1816 115.962 1816 139.497C1791.76 136.067 1779.58 102.388 1748.89 111.656Z" fill="black"/>
<path d="M1249.71 279.468C1216.66 279.468 1187.47 279.468 1156.45 279.468C1183.73 209.701 1177.06 141.321 1160.8 69.5478C1169.56 66.3003 1183.39 69.3289 1196.77 68.8545C1210.63 68.3802 1224.53 68.7451 1242.1 68.7451C1238.92 81.1148 1245.92 92.1344 1235.7 103.263C1228.95 110.634 1233.15 121.289 1233 130.411C1232.59 158.836 1233.9 187.297 1232.51 215.685C1231.39 238.308 1239.63 257.866 1249.71 279.468Z" fill="black"/>
<path d="M41.1399 0H0V119.282H41.1399V0Z" fill="black"/>
<path d="M122.97 0H81.8302V119.282H122.97V0Z" fill="black"/>
<path d="M204.763 0H163.623V119.282H204.763V0Z" fill="black"/>
<path d="M286.593 0H245.453V119.282H286.593V0Z" fill="black"/>
<path d="M262.164 141.649H245.416H116.75V181.714H245.453V191.967H160.288V232.032H241.819C225.707 297.785 163.735 303.076 145.751 303.185V303.076C145.751 303.076 144.889 303.149 143.278 303.185C141.667 303.149 140.805 303.076 140.805 303.076V303.185C120.685 303.039 45.4487 296.435 41.1399 205.797V141.649H0V216.67C0 216.67 1.34884 349.453 140.805 349.964V350C141.667 350 142.453 349.964 143.278 349.964C144.102 349.964 144.889 350 145.751 350V349.927C285.244 349.416 286.555 216.634 286.555 216.634V141.649H262.164Z" fill="black"/>
</g>
<defs>
<clipPath id="clip0_24_41">
<rect width="1816" height="350" fill="white"/>
</clipPath>
</defs>
</svg>
