<svg width="224" height="43" viewBox="0 0 224 43" fill="none" xmlns="http://www.w3.org/2000/svg">
<path d="M66.4356 20.6976C64.2773 24.6067 62.5904 27.6505 60.7649 30.9589C56.7995 28.5382 56.6932 24.3287 54.0127 21.0786C54.0127 25.7363 54.0127 29.9817 54.0127 34.348C50.7591 34.348 47.8521 34.348 44.5754 34.348C47.2051 30.2865 46.5534 25.817 46.5719 21.4372C46.5904 17.1471 47.2189 12.7539 44.483 8.63855C47.5055 8.63855 50.4079 8.63855 53.6753 8.63855C56.1479 11.79 57.5621 15.9367 60.1179 20.3255C62.5165 15.9098 64.5592 12.1397 66.491 8.58028C69.7816 8.58028 72.6886 8.58028 75.7111 8.58028C72.3697 15.0043 74.2091 21.7331 73.747 28.2647C73.5944 30.421 75.004 32.0841 75.6464 34.3435C72.818 34.7201 69.7955 34.3301 66.4356 34.5587C66.4356 30.1027 66.4356 25.8574 66.4356 20.6976Z" fill="#020202"/>
<path d="M119.741 14.9639C119.847 12.3594 119.039 10.2524 117.246 8.59372H99.1196C100.284 17.2233 100.284 25.7184 99.0965 34.4825C103.515 34.4825 107.993 34.4332 112.471 34.5139C114.505 34.5452 116.46 34.3839 118.031 33.048C120.245 31.3893 119.667 29.363 119.69 27.4533C119.709 23.2887 119.575 19.1151 119.741 14.9639ZM112.3 27.9688C111.39 29.4751 110.119 29.6678 108.441 29.372V13.7535C110.027 12.9287 111.251 13.5384 112.3 14.8832V27.9688Z" fill="#030303"/>
<path d="M178.163 34.3166C177.271 33.1645 177.262 31.7927 176.116 31.0082V23.5442C175.214 22.8718 174.017 21.9752 172.474 20.8276C175.108 20.98 175.612 19.0075 175.787 18.0706C176.25 15.7081 175.945 13.1977 175.945 11.4359C174.886 10.091 174.151 9.1765 173.772 8.68787H155.11C157.084 13.0004 156.127 17.295 156.192 21.491C156.243 25.7857 156.917 30.1296 155.226 34.3749H164.677V23.6966C166.535 23.1183 167.658 23.6877 168.758 25.0012V34.3211H178.163V34.3166ZM167.381 19.2899C166.47 18.8641 165.532 18.4247 164.76 18.0571V13.5608H168.735C168.513 15.5153 169.719 17.6402 167.381 19.2899Z" fill="#030303"/>
<path d="M96.7256 27.8792C96.7163 22.558 96.7163 17.2457 96.7163 11.9425C95.487 11.0145 95.658 9.16305 94.0728 8.45027H81.2109C79.8059 9.49927 78.7337 10.2927 78.0219 10.8217V31.4789C79.1126 32.8417 79.8475 33.7473 80.5592 34.6439C85.7215 33.8414 90.9671 35.8139 95.4454 32.9538C96.9659 31.4296 96.7256 29.6365 96.7256 27.8792ZM89.3079 28.0495C88.4483 29.2913 87.2744 29.7575 85.3102 29.372V13.8567C86.6228 12.9197 87.9214 13.8567 89.3079 13.2873V28.0495Z" fill="#020202"/>
<path d="M186.602 18.4113C189.712 18.4113 192.476 18.4113 195.258 18.4113C197.509 20.2358 199.066 22.2666 199.127 25.3194C199.196 28.8878 198.766 32.111 195.402 34.3749C190.179 34.3749 184.846 34.3749 179.369 34.3749C179.369 32.1559 179.369 30.0399 179.369 27.8343C179.771 27.4488 180.261 26.9826 180.58 26.6733C183.982 27.3278 186.625 29.9548 190.512 29.3944C190.512 27.4623 190.512 25.5615 190.512 23.4904C187.489 23.4904 184.582 23.4904 181.874 23.4904C180.03 21.8317 179.129 20.0655 179.203 17.8151C179.309 14.6232 178.662 11.2835 181.689 8.59821C186.842 8.59821 192.176 8.59821 197.768 8.59821C197.768 10.6783 197.768 12.9108 197.768 15.457C195.475 15.4884 193.521 14.426 191.422 13.6998C188.201 12.5835 186.764 13.6773 186.542 17.0305C186.519 17.3533 186.57 17.6851 186.602 18.4113Z" fill="#030303"/>
<path d="M121.428 8.54441C128.573 8.54441 134.942 8.54441 141.426 8.54441C141.426 11.2117 141.426 13.776 141.426 16.5957C137.89 15.856 135.427 12.6776 131.397 13.6011C130.944 15.0177 131.212 16.6002 131.249 18.353C132.917 18.353 134.433 18.353 136.176 18.353C136.176 20.0789 136.176 21.6435 136.176 23.3918C134.627 23.3918 133.116 23.3918 131.235 23.3918C131.244 27.0543 130.551 30.5689 132.977 34.1956C128.892 34.738 125.509 34.3166 121.738 34.5542C121.904 31.4879 123.207 28.8026 122.893 25.9022C122.588 23.1094 122.741 20.2538 122.852 17.434C122.967 14.5291 122.773 11.678 121.428 8.54441Z" fill="#030303"/>
<path d="M215.723 13.7177C216.125 20.6841 214.743 27.5743 217.678 34.2673C214.082 34.2673 210.362 34.2673 206.544 34.2673C209.987 27.6147 207.838 20.5989 208.531 13.9732C207.538 13.1439 206.65 13.5877 205.865 13.4801C204.206 14.8698 202.879 16.6136 200.374 18.1961C199.921 14.6322 200.213 11.7362 200.092 8.652C208.088 8.652 215.977 8.652 224 8.652C224 11.4628 224 14.2467 224 17.1381C221.01 16.7167 219.508 12.579 215.723 13.7177Z" fill="#020202"/>
<path d="M154.149 34.3346C150.073 34.3346 146.473 34.3346 142.646 34.3346C146.01 25.7632 145.188 17.3623 143.182 8.54441C144.263 8.14543 145.969 8.51752 147.619 8.45924C149.329 8.40096 151.043 8.44579 153.211 8.44579C152.818 9.96549 153.682 11.3193 152.421 12.6866C151.589 13.5922 152.106 14.9012 152.088 16.0219C152.037 19.5141 152.199 23.0107 152.028 26.4984C151.889 29.2778 152.906 31.6807 154.149 34.3346Z" fill="#020202"/>
<path d="M5.07452 0H0V14.6546H5.07452V0Z" fill="black"/>
<path d="M15.1681 0H10.0936V14.6546H15.1681V0Z" fill="black"/>
<path d="M25.2571 0H20.1826V14.6546H25.2571V0Z" fill="black"/>
<path d="M35.3507 0H30.2761V14.6546H35.3507V0Z" fill="black"/>
<path d="M32.3374 17.4026H30.2715H14.4009V22.3249H30.2761V23.5845H19.7712V28.5068H29.8279C27.8406 36.585 20.1964 37.235 17.9781 37.2484V37.235C17.9781 37.235 17.8718 37.244 17.673 37.2484C17.4743 37.244 17.368 37.235 17.368 37.235V37.2484C14.8862 37.2305 5.60601 36.4191 5.07452 25.2836V17.4026H0V26.6195C0 26.6195 0.166377 42.9328 17.368 42.9955V43C17.4743 43 17.5713 42.9955 17.673 42.9955C17.7747 42.9955 17.8718 43 17.9781 43V42.991C35.1843 42.9283 35.346 26.615 35.346 26.615V17.4026H32.3374Z" fill="black"/>
</svg>
