<svg width="25" height="21" viewBox="0 0 25 21" fill="none" xmlns="http://www.w3.org/2000/svg">
<path d="M14.9645 20.5871L25 10.4993L14.9645 0.411611C14.8739 0.292591 14.7587 0.194434 14.6268 0.123785C14.495 0.0531358 14.3495 0.0116442 14.2002 0.00211866C14.0509 -0.00740688 13.9013 0.0152566 13.7615 0.0685741C13.6217 0.121892 13.495 0.204618 13.39 0.311155C13.285 0.417691 13.2041 0.545549 13.1528 0.686072C13.1014 0.826596 13.0809 0.976505 13.0926 1.12565C13.1042 1.2748 13.1478 1.41969 13.2203 1.55054C13.2929 1.68138 13.3926 1.79512 13.5129 1.88404L21.0213 9.45505L1.04428 9.45505C0.767318 9.45505 0.501703 9.56507 0.305864 9.76091C0.110023 9.95675 -4.46834e-07 10.2224 -4.5894e-07 10.4993C-4.71047e-07 10.7763 0.110023 11.0419 0.305864 11.2377C0.501703 11.4336 0.767318 11.5436 1.04428 11.5436L21.0213 11.5436L13.5129 19.1146C13.3177 19.3113 13.2085 19.5774 13.2095 19.8545C13.2105 20.1316 13.3215 20.397 13.5182 20.5923C13.7148 20.7875 13.981 20.8967 14.2581 20.8957C14.5352 20.8947 14.8006 20.7837 14.9958 20.5871L14.9645 20.5871Z" fill="#C2E105"/>
</svg>
