<svg width="25" height="21" viewBox="0 0 25 21" fill="none" xmlns="http://www.w3.org/2000/svg">
<path d="M10.0355 20.5871L4.5894e-07 10.4993L10.0355 0.411611C10.1261 0.292591 10.2413 0.194434 10.3732 0.123785C10.505 0.0531358 10.6505 0.0116442 10.7998 0.00211866C10.9491 -0.00740688 11.0987 0.0152566 11.2385 0.0685741C11.3783 0.121892 11.505 0.204618 11.61 0.311155C11.715 0.417691 11.7959 0.545549 11.8472 0.686072C11.8986 0.826596 11.9191 0.976505 11.9074 1.12565C11.8958 1.2748 11.8522 1.41969 11.7797 1.55054C11.7071 1.68138 11.6074 1.79512 11.4871 1.88404L3.9787 9.45505L23.9557 9.45505C24.2327 9.45505 24.4983 9.56507 24.6941 9.76091C24.89 9.95675 25 10.2224 25 10.4993C25 10.7763 24.89 11.0419 24.6941 11.2377C24.4983 11.4336 24.2327 11.5436 23.9557 11.5436L3.9787 11.5436L11.4871 19.1146C11.6823 19.3113 11.7915 19.5774 11.7905 19.8545C11.7895 20.1316 11.6785 20.397 11.4818 20.5923C11.2852 20.7875 11.019 20.8967 10.7419 20.8957C10.4648 20.8947 10.1994 20.7837 10.0042 20.5871L10.0355 20.5871Z" fill="white"/>
</svg>
