<svg width="27" height="27" viewBox="0 0 27 27" fill="none" xmlns="http://www.w3.org/2000/svg">
<path d="M1.98636 4.33362H23.1171C25.031 4.33362 26.413 6.09753 25.888 7.87254L23.5907 15.6504C23.2365 16.8448 22.106 17.6671 20.8199 17.6671H8.1003C6.81279 17.6671 5.68084 16.8435 5.32806 15.6504L1.98636 4.33362ZM1.98636 4.33362L1.00024 1.00026M19.7504 26.0005C20.3029 26.0005 20.8328 25.781 21.2236 25.3903C21.6143 24.9996 21.8338 24.4697 21.8338 23.9171C21.8338 23.3646 21.6143 22.8347 21.2236 22.444C20.8328 22.0533 20.3029 21.8338 19.7504 21.8338C19.1979 21.8338 18.668 22.0533 18.2773 22.444C17.8865 22.8347 17.6671 23.3646 17.6671 23.9171C17.6671 24.4697 17.8865 24.9996 18.2773 25.3903C18.668 25.781 19.1979 26.0005 19.7504 26.0005ZM8.6392 26.0005C9.19174 26.0005 9.72165 25.781 10.1123 25.3903C10.5031 24.9996 10.7225 24.4697 10.7225 23.9171C10.7225 23.3646 10.5031 22.8347 10.1123 22.444C9.72165 22.0533 9.19174 21.8338 8.6392 21.8338C8.08666 21.8338 7.55675 22.0533 7.16605 22.444C6.77534 22.8347 6.55585 23.3646 6.55585 23.9171C6.55585 24.4697 6.77534 24.9996 7.16605 25.3903C7.55675 25.781 8.08666 26.0005 8.6392 26.0005Z" stroke="black" stroke-width="2" stroke-linecap="round" stroke-linejoin="round"/>
</svg>
