<svg width="113" height="79" viewBox="0 0 113 79" fill="none" xmlns="http://www.w3.org/2000/svg">
<path d="M47.0644 63.737L75.0099 35.7915L70.9516 31.7332L47.0305 55.66L34.9798 43.6092L30.9554 47.628L47.0644 63.737ZM25.364 78.9103C18.3335 78.9103 12.3495 76.4566 7.41193 71.5491C2.47064 66.6492 0 60.6802 0 53.6421C0 47.1827 2.20761 41.4505 6.62283 36.4453C11.038 31.4401 16.5261 28.7515 23.0869 28.3795C24.3532 20.1691 28.1296 13.3866 34.4162 8.03194C40.7027 2.67732 48.0188 0 56.3645 0C65.7661 0 73.753 3.28605 80.3251 9.85815C86.8971 16.4303 90.1832 24.4171 90.1832 33.8187V39.4552H93.6553C99.0512 39.628 103.579 41.6102 107.239 45.4016C110.899 49.1931 112.729 53.7868 112.729 59.1827C112.729 64.7102 110.824 69.381 107.014 73.1949C103.196 77.0052 98.5252 78.9103 93.0014 78.9103H25.364ZM25.364 73.2739H93.0014C96.9469 73.2739 100.282 71.9117 103.006 69.1874C105.73 66.4632 107.093 63.1283 107.093 59.1827C107.093 55.2372 105.73 51.9023 103.006 49.178C100.282 46.4538 96.9469 45.0916 93.0014 45.0916H84.5468V33.8187C84.5468 26.0216 81.798 19.3744 76.3006 13.8769C70.8032 8.37952 64.1578 5.63269 56.3645 5.63645C48.5712 5.64021 41.9258 8.38892 36.4284 13.8826C30.931 19.3762 28.1823 26.0216 28.1823 33.8187H25.364C19.9155 33.8187 15.2654 35.7445 11.4138 39.5961C7.56224 43.4476 5.63645 48.0977 5.63645 53.5463C5.63645 58.9949 7.56224 63.6449 11.4138 67.4965C15.2654 71.3481 19.9155 73.2739 25.364 73.2739Z" fill="#C2E105"/>
</svg>
