<svg width="24" height="27" viewBox="0 0 24 27" fill="none" xmlns="http://www.w3.org/2000/svg">
<path d="M9.33333 21.3333C9.68696 21.3333 10.0261 21.1929 10.2761 20.9428C10.5262 20.6928 10.6667 20.3536 10.6667 20V12C10.6667 11.6464 10.5262 11.3072 10.2761 11.0572C10.0261 10.8071 9.68696 10.6667 9.33333 10.6667C8.97971 10.6667 8.64057 10.8071 8.39052 11.0572C8.14048 11.3072 8 11.6464 8 12V20C8 20.3536 8.14048 20.6928 8.39052 20.9428C8.64057 21.1929 8.97971 21.3333 9.33333 21.3333ZM22.6667 5.33333H17.3333V4C17.3333 2.93913 16.9119 1.92172 16.1618 1.17157C15.4116 0.421427 14.3942 0 13.3333 0H10.6667C9.6058 0 8.58838 0.421427 7.83824 1.17157C7.08809 1.92172 6.66667 2.93913 6.66667 4V5.33333H1.33333C0.979711 5.33333 0.640573 5.47381 0.390524 5.72386C0.140476 5.97391 0 6.31304 0 6.66667C0 7.02029 0.140476 7.35943 0.390524 7.60948C0.640573 7.85952 0.979711 8 1.33333 8H2.66667V22.6667C2.66667 23.7275 3.08809 24.7449 3.83824 25.4951C4.58839 26.2452 5.6058 26.6667 6.66667 26.6667H17.3333C18.3942 26.6667 19.4116 26.2452 20.1618 25.4951C20.9119 24.7449 21.3333 23.7275 21.3333 22.6667V8H22.6667C23.0203 8 23.3594 7.85952 23.6095 7.60948C23.8595 7.35943 24 7.02029 24 6.66667C24 6.31304 23.8595 5.97391 23.6095 5.72386C23.3594 5.47381 23.0203 5.33333 22.6667 5.33333ZM9.33333 4C9.33333 3.64638 9.47381 3.30724 9.72386 3.05719C9.97391 2.80714 10.313 2.66667 10.6667 2.66667H13.3333C13.687 2.66667 14.0261 2.80714 14.2761 3.05719C14.5262 3.30724 14.6667 3.64638 14.6667 4V5.33333H9.33333V4ZM18.6667 22.6667C18.6667 23.0203 18.5262 23.3594 18.2761 23.6095C18.0261 23.8595 17.687 24 17.3333 24H6.66667C6.31304 24 5.97391 23.8595 5.72386 23.6095C5.47381 23.3594 5.33333 23.0203 5.33333 22.6667V8H18.6667V22.6667ZM14.6667 21.3333C15.0203 21.3333 15.3594 21.1929 15.6095 20.9428C15.8595 20.6928 16 20.3536 16 20V12C16 11.6464 15.8595 11.3072 15.6095 11.0572C15.3594 10.8071 15.0203 10.6667 14.6667 10.6667C14.313 10.6667 13.9739 10.8071 13.7239 11.0572C13.4738 11.3072 13.3333 11.6464 13.3333 12V20C13.3333 20.3536 13.4738 20.6928 13.7239 20.9428C13.9739 21.1929 14.313 21.3333 14.6667 21.3333Z" fill="#CE372F"/>
</svg>
