<svg width="91" height="91" viewBox="0 0 91 91" fill="none" xmlns="http://www.w3.org/2000/svg">
<path d="M21.2715 29.2483C21.2715 25.7223 22.6722 22.3408 25.1654 19.8475C27.6586 17.3543 31.0402 15.9536 34.5661 15.9536C38.0921 15.9536 41.4736 17.3543 43.9669 19.8475C46.4601 22.3408 47.8608 25.7223 47.8608 29.2483C47.8608 32.7742 46.4601 36.1558 43.9669 38.649C41.4736 41.1422 38.0921 42.5429 34.5661 42.5429C31.0402 42.5429 27.6586 41.1422 25.1654 38.649C22.6722 36.1558 21.2715 32.7742 21.2715 29.2483ZM34.5661 21.2715C32.4506 21.2715 30.4216 22.1119 28.9257 23.6078C27.4297 25.1038 26.5893 27.1327 26.5893 29.2483C26.5893 31.3638 27.4297 33.3928 28.9257 34.8887C30.4216 36.3847 32.4506 37.2251 34.5661 37.2251C36.6817 37.2251 38.7106 36.3847 40.2066 34.8887C41.7025 33.3928 42.5429 31.3638 42.5429 29.2483C42.5429 27.1327 41.7025 25.1038 40.2066 23.6078C38.7106 22.1119 36.6817 21.2715 34.5661 21.2715Z" fill="#C2E105"/>
<path d="M53.8327 0H36.5709C30.7213 0 26.1586 -3.96212e-08 22.5052 0.2978C18.7933 0.600919 15.7781 1.22843 13.066 2.60575C8.56201 4.90025 4.90025 8.56201 2.60575 13.066C1.22311 15.7781 0.600919 18.7933 0.2978 22.5052C-3.96212e-08 26.1639 0 30.716 0 36.5709V53.8327C0 58.8634 7.92423e-08 62.9369 0.191443 66.3031C0.205624 66.647 0.226896 67.0015 0.255258 67.3667L0.271212 67.5315C0.457337 70.0097 0.776409 72.1794 1.35606 74.1576C1.67867 75.2708 2.09524 76.3308 2.60575 77.3377C4.90025 81.8417 8.56201 85.5034 13.066 87.7979C15.7781 89.1806 18.7933 89.8028 22.5052 90.1059C26.1586 90.4037 30.716 90.4037 36.5709 90.4037H53.8327C59.6824 90.4037 64.2451 90.4037 67.8985 90.1059C71.6104 89.8028 74.6256 89.1753 77.3377 87.7979C81.8417 85.5034 85.5034 81.8417 87.7979 77.3377C90.4356 72.1528 90.4196 65.8883 90.4037 60.1025L90.3984 58.2838L90.4037 53.8327V36.5709C90.4037 30.7213 90.4037 26.1586 90.1059 22.5052C89.8028 18.7933 89.1753 15.7781 87.7979 13.066C85.5034 8.56201 81.8417 4.90025 77.3377 2.60575C74.6256 1.22311 71.6104 0.600919 67.8985 0.2978C64.2451 -3.96212e-08 59.6877 0 53.8327 0ZM5.59971 67.4624L5.5678 67.0902C5.34977 63.7505 8.77448 60.4428 11.3058 58.0019C11.7135 57.612 12.0893 57.245 12.4332 56.9011C13.7733 55.5504 14.6826 54.9388 15.4963 54.6464C17.2648 53.9999 19.2051 53.9999 20.9737 54.6464C21.782 54.9388 22.6913 55.5504 24.0314 56.9011C25.3875 58.2678 26.9882 60.1823 29.2642 62.9103C29.8998 63.6748 30.6895 64.2968 31.5817 64.7355C32.4739 65.1742 33.4486 65.4199 34.4422 65.4566C35.4357 65.4932 36.4259 65.3199 37.3479 64.9481C38.27 64.5762 39.1034 64.0142 39.7936 63.2985L55.7631 46.7547C56.2258 46.276 56.7097 45.7336 57.2096 45.1753C59.0442 43.1226 61.1342 40.7827 63.5751 39.9691C65.2097 39.4253 66.9764 39.4253 68.6111 39.9691C72.7218 41.3411 76.5826 45.9729 79.9381 49.9986C81.1825 51.4876 82.3524 52.8968 83.4479 54.0242C84.7827 55.4121 85.0858 56.2098 85.0805 58.0817C85.0646 62.7082 84.9741 66.0957 84.6817 68.744C84.3785 71.4295 83.868 73.328 83.0597 74.9234C81.2751 78.4268 78.4268 81.275 74.9234 83.0597C73.0834 83.9957 70.8499 84.5274 67.4677 84.804C64.0537 85.0858 59.709 85.0858 53.7104 85.0858H36.6933C30.6947 85.0858 26.35 85.0858 22.9413 84.804C19.5538 84.5274 17.3203 83.9957 15.4803 83.0597C11.7418 81.1508 8.75829 78.0343 7.01426 74.2161C6.2804 72.5091 5.84433 70.4245 5.59971 67.4624ZM85.0858 48.0735L80.1668 42.979C78.5029 41.1976 76.7716 39.4805 74.9766 37.8313C73.4716 36.5125 72.0092 35.4967 70.2915 34.9277C67.5661 34.0206 64.6201 34.0206 61.8946 34.9277C60.1769 35.4967 58.7145 36.5125 57.2149 37.8313C55.7525 39.1076 54.088 40.8359 52.0193 42.979L35.9647 59.6026C35.7935 59.7809 35.5865 59.9209 35.3574 60.0136C35.1282 60.1063 34.8821 60.1495 34.6351 60.1405C34.3881 60.1315 34.1458 60.0704 33.924 59.9612C33.7023 59.852 33.5061 59.6972 33.3483 59.5069L33.2686 59.4112C31.0882 56.8001 29.344 54.7049 27.8071 53.152C26.233 51.5673 24.6696 50.3336 22.7977 49.6476C19.8495 48.5696 16.6151 48.5696 13.6669 49.6476C11.795 50.3389 10.2369 51.562 8.65748 53.1574C7.49606 54.3541 6.382 55.5959 5.31786 56.8799V36.6933C5.31786 30.6947 5.31786 26.35 5.59971 22.9413C5.87624 19.5538 6.40803 17.3203 7.34397 15.4803C9.12863 11.9769 11.9769 9.12863 15.4803 7.34397C17.3203 6.40803 19.5538 5.87624 22.9413 5.59971C26.35 5.31786 30.6947 5.31786 36.6933 5.31786H53.7104C59.709 5.31786 64.0537 5.31786 67.4624 5.59971C70.8499 5.87624 73.0834 6.40803 74.9234 7.34397C78.4268 9.12863 81.2751 11.9769 83.0597 15.4803C83.9957 17.3203 84.5275 19.5538 84.804 22.9413C85.0858 26.35 85.0858 30.6947 85.0858 36.6933V48.0735Z" fill="#C2E105"/>
</svg>
