<svg width="41" height="42" viewBox="0 0 41 42" fill="none" xmlns="http://www.w3.org/2000/svg">
<g clip-path="url(#clip0_98_750)">
<path fill-rule="evenodd" clip-rule="evenodd" d="M2.25439 11.5838C3.10739 9.70003 4.31327 8.05536 5.72819 6.56748C8.92889 3.20144 12.8028 1.04577 17.3892 0.310291C23.8086 -0.718474 29.5536 0.799857 34.5188 5.09089C34.8323 5.36162 34.9099 5.52067 34.5693 5.85569C32.8173 7.5782 31.0922 9.3289 29.357 11.0695C29.1794 11.2477 29.0591 11.4654 28.7433 11.1755C24.3727 7.15519 17.2375 7.20144 12.5926 11.5376C10.9979 13.0266 9.86393 14.81 9.12219 16.8551C9.0143 16.7841 8.89967 16.7209 8.7974 16.6419C6.6149 14.9555 4.43577 13.2702 2.25439 11.5838Z" fill="#D7282A"/>
<path fill-rule="evenodd" clip-rule="evenodd" d="M9.06941 25.0635C9.69651 26.6608 10.4742 28.1712 11.6318 29.4538C14.574 32.716 18.222 34.1227 22.5915 33.667C24.6223 33.4549 26.4721 32.7645 28.2006 31.7042C28.3669 31.8531 28.5242 32.0122 28.6996 32.1498C30.7225 33.7347 32.7488 35.3173 34.7728 36.8999C32.5397 39.0285 29.9032 40.4453 26.9374 41.1977C19.9448 42.9721 13.4996 41.8508 7.77587 37.3173C5.41018 35.4425 3.54797 33.1278 2.23645 30.3878C4.5156 28.6134 6.7925 26.839 9.06941 25.0635Z" fill="#45AC43"/>
<path fill-rule="evenodd" clip-rule="evenodd" d="M34.7739 36.9012C32.7487 35.3186 30.7235 33.736 28.7006 32.1511C28.5253 32.0135 28.368 31.8544 28.2016 31.7055C29.5727 30.6553 30.7168 29.4134 31.4675 27.8353C31.7676 27.2058 31.9777 26.547 32.1767 25.8815C32.3138 25.4224 32.2711 25.2442 31.7058 25.2487C28.3354 25.2769 24.965 25.2633 21.5946 25.2633C20.8809 25.2633 20.8798 25.2633 20.8798 24.5222C20.8798 22.2289 20.891 19.9368 20.8697 17.6435C20.8652 17.2013 20.9427 17.031 21.4395 17.0332C27.6554 17.0513 33.8725 17.0479 40.0885 17.0389C40.4245 17.0389 40.6347 17.0637 40.6931 17.4732C41.4663 22.9306 40.8471 28.1443 38.0004 32.961C37.1306 34.4342 36.0843 35.78 34.7739 36.9012Z" fill="#5D7FBE"/>
<path fill-rule="evenodd" clip-rule="evenodd" d="M9.06933 25.0635C6.79243 26.8379 4.5144 28.6123 2.23749 30.3878C1.12489 28.3122 0.484301 26.0832 0.184235 23.7606C-0.333856 19.7369 0.235932 15.8655 1.9363 12.1746C2.02958 11.9715 2.14759 11.7809 2.25435 11.5835C4.43461 13.2688 6.61486 14.9552 8.79624 16.6393C8.89851 16.7183 9.01201 16.7815 9.12103 16.8525C8.20734 19.5846 8.25342 22.3224 9.06933 25.0635Z" fill="#F4C300"/>
</g>
<defs>
<clipPath id="clip0_98_750">
<rect width="41" height="42" fill="white"/>
</clipPath>
</defs>
</svg>
