<svg width="23" height="23" viewBox="0 0 23 23" fill="none" xmlns="http://www.w3.org/2000/svg">
<path d="M12.305 0C13.5602 0.00334722 14.1973 0.0100417 14.7474 0.025662L14.9638 0.0334722C15.2138 0.0423981 15.4603 0.0535555 15.7583 0.0669444C16.9454 0.122731 17.7554 0.310176 18.4662 0.585764C19.2025 0.869162 19.8229 1.25298 20.4433 1.87221C21.0106 2.42997 21.4496 3.10465 21.7297 3.84931C22.0053 4.56003 22.1927 5.37006 22.2485 6.55832C22.2619 6.85511 22.2731 7.10169 22.282 7.35273L22.2887 7.56919C22.3054 8.11813 22.3121 8.75522 22.3143 10.0104L22.3155 10.8428V12.3044C22.3182 13.1182 22.3096 13.932 22.2898 14.7456L22.2831 14.9621C22.2742 15.2131 22.263 15.4597 22.2496 15.7565C22.1938 16.9448 22.0042 17.7537 21.7297 18.4655C21.4504 19.2106 21.0113 19.8854 20.4433 20.4426C19.8853 21.0098 19.2107 21.4487 18.4662 21.7291C17.7554 22.0046 16.9454 22.1921 15.7583 22.2479C15.4935 22.2603 15.2287 22.2715 14.9638 22.2813L14.7474 22.288C14.1973 22.3037 13.5602 22.3115 12.305 22.3137L11.4727 22.3148H10.0122C9.19799 22.3176 8.38379 22.3091 7.56983 22.2892L7.35338 22.2825C7.08851 22.2724 6.8237 22.2609 6.55897 22.2479C5.37182 22.1921 4.56179 22.0046 3.84995 21.7291C3.10538 21.4494 2.43097 21.0103 1.87397 20.4426C1.30611 19.8851 0.866709 19.2103 0.586408 18.4655C0.31082 17.7548 0.123375 16.9448 0.0675882 15.7565C0.0551575 15.4917 0.044 15.2269 0.034116 14.9621L0.0285374 14.7456C0.00797659 13.9321 -0.00132225 13.1182 0.000643783 12.3044V10.0104C-0.00247021 9.19661 0.00571276 8.38278 0.0251902 7.56919L0.0330003 7.35273C0.0419262 7.10169 0.0530836 6.85511 0.0664725 6.55832C0.12226 5.37006 0.309704 4.56115 0.585292 3.84931C0.86547 3.10388 1.30575 2.42899 1.87509 1.87221C2.43195 1.30483 3.10591 0.8658 3.84995 0.585764C4.56179 0.310176 5.3707 0.122731 6.55897 0.0669444C6.85576 0.0535555 7.10345 0.0423981 7.35338 0.0334722L7.56983 0.0267777C8.38342 0.00695409 9.19724 -0.00160075 10.0111 0.00111566L12.305 0ZM11.1581 5.5787C9.67849 5.5787 8.25952 6.16646 7.21331 7.21267C6.1671 8.25888 5.57935 9.67784 5.57935 11.1574C5.57935 12.637 6.1671 14.0559 7.21331 15.1021C8.25952 16.1484 9.67849 16.7361 11.1581 16.7361C12.6376 16.7361 14.0566 16.1484 15.1028 15.1021C16.149 14.0559 16.7368 12.637 16.7368 11.1574C16.7368 9.67784 16.149 8.25888 15.1028 7.21267C14.0566 6.16646 12.6376 5.5787 11.1581 5.5787ZM11.1581 7.81019C11.5976 7.81011 12.0329 7.89662 12.439 8.06476C12.8452 8.23291 13.2142 8.4794 13.5251 8.79017C13.8359 9.10094 14.0825 9.46989 14.2508 9.87597C14.4191 10.282 14.5058 10.7173 14.5058 11.1569C14.5059 11.5964 14.4194 12.0317 14.2513 12.4378C14.0831 12.844 13.8366 13.213 13.5258 13.5239C13.2151 13.8347 12.8461 14.0813 12.4401 14.2496C12.034 14.4179 11.5987 14.5046 11.1592 14.5046C10.2714 14.5046 9.42005 14.152 8.79233 13.5243C8.1646 12.8965 7.81195 12.0451 7.81195 11.1574C7.81195 10.2697 8.1646 9.41829 8.79233 8.79056C9.42005 8.16284 10.2714 7.81019 11.1592 7.81019M17.0168 3.90509C16.6469 3.90509 16.2922 4.05203 16.0306 4.31358C15.7691 4.57514 15.6221 4.92988 15.6221 5.29977C15.6221 5.66966 15.7691 6.0244 16.0306 6.28595C16.2922 6.54751 16.6469 6.69445 17.0168 6.69445C17.3867 6.69445 17.7414 6.54751 18.003 6.28595C18.2645 6.0244 18.4115 5.66966 18.4115 5.29977C18.4115 4.92988 18.2645 4.57514 18.003 4.31358C17.7414 4.05203 17.3867 3.90509 17.0168 3.90509Z" fill="#C2E105"/>
</svg>
