<svg width="23" height="22" viewBox="0 0 23 22" fill="none" xmlns="http://www.w3.org/2000/svg">
<path d="M4.68331 2.34282C4.683 2.96387 4.43599 3.55936 3.99663 3.99828C3.55726 4.43721 2.96153 4.68362 2.34048 4.68331C1.71944 4.683 1.12395 4.43599 0.685027 3.99663C0.246101 3.55726 -0.000310229 2.96153 2.9313e-07 2.34048C0.000310816 1.71944 0.247318 1.12395 0.686683 0.685027C1.12605 0.246101 1.72178 -0.000310229 2.34283 2.9313e-07C2.96387 0.000310816 3.55936 0.247318 3.99828 0.686683C4.43721 1.12605 4.68362 1.72178 4.68331 2.34282ZM4.75356 6.4173H0.0702498V21.0761H4.75356V6.4173ZM12.1532 6.4173H7.49329V21.0761H12.1064V13.3837C12.1064 9.0985 17.6912 8.70042 17.6912 13.3837V21.0761H22.316V11.7914C22.316 4.5674 14.0499 4.83669 12.1064 8.38429L12.1532 6.4173Z" fill="#C2E105"/>
</svg>
