<svg width="26" height="30" viewBox="0 0 26 30" fill="none" xmlns="http://www.w3.org/2000/svg">
<path d="M4.52701 4.44186C6.79324 2.22095 9.84437 0.984128 13.0174 1.00015C16.1904 1.01618 19.2289 2.28376 21.4726 4.52744C23.7162 6.77113 24.9838 9.80961 24.9998 12.9826C25.0159 16.1556 23.779 19.2068 21.5581 21.473L15.1928 27.8384C14.6224 28.4085 13.849 28.7288 13.0426 28.7288C12.2361 28.7288 11.4627 28.4085 10.8924 27.8384L4.52701 21.473C2.26869 19.2144 1 16.1513 1 12.9574C1 9.76352 2.26869 6.70041 4.52701 4.44186Z" stroke="#C2E105" stroke-width="2" stroke-linejoin="round"/>
<path d="M13.0426 17.5193C15.5621 17.5193 17.6045 15.4769 17.6045 12.9574C17.6045 10.4379 15.5621 8.39551 13.0426 8.39551C10.5231 8.39551 8.48067 10.4379 8.48067 12.9574C8.48067 15.4769 10.5231 17.5193 13.0426 17.5193Z" stroke="#C2E105" stroke-width="2" stroke-linecap="round" stroke-linejoin="round"/>
</svg>
