<svg width="27" height="22" viewBox="0 0 27 22" fill="none" xmlns="http://www.w3.org/2000/svg">
<path d="M4.60526 0.5H22.3947C23.4835 0.5 24.5277 0.932518 25.2976 1.7024C26.0675 2.47229 26.5 3.51648 26.5 4.60526V16.9211C26.5 18.0098 26.0675 19.054 25.2976 19.8239C24.5277 20.5938 23.4835 21.0263 22.3947 21.0263H4.60526C3.51648 21.0263 2.47229 20.5938 1.7024 19.8239C0.932518 19.054 0.5 18.0098 0.5 16.9211V4.60526C0.5 3.51648 0.932518 2.47229 1.7024 1.7024C2.47229 0.932518 3.51648 0.5 4.60526 0.5ZM4.60526 1.86842C3.92105 1.86842 3.31895 2.10105 2.85368 2.51158L13.5 9.39474L24.1463 2.51158C23.6811 2.10105 23.0789 1.86842 22.3947 1.86842H4.60526ZM13.5 11.0505L2.04632 3.62C1.93684 3.92105 1.86842 4.26316 1.86842 4.60526V16.9211C1.86842 17.6469 2.15677 18.343 2.67002 18.8563C3.18328 19.3696 3.87941 19.6579 4.60526 19.6579H22.3947C23.1206 19.6579 23.8167 19.3696 24.33 18.8563C24.8432 18.343 25.1316 17.6469 25.1316 16.9211V4.60526C25.1316 4.26316 25.0632 3.92105 24.9537 3.62L13.5 11.0505Z" fill="#C2E105" stroke="#C2E105"/>
</svg>
