<svg width="85" height="85" viewBox="0 0 85 85" fill="none" xmlns="http://www.w3.org/2000/svg">
<path d="M5.29167 20.1507V76.1206C5.29167 77.0696 5.59682 77.8492 6.20712 78.4595C6.81743 79.0698 7.59883 79.375 8.55133 79.375H76.1206C77.0696 79.375 77.8492 79.0698 78.4595 78.4595C79.0698 77.8492 79.375 77.0696 79.375 76.1206V20.1507H58.2083V56.0705L42.3333 48.133L26.4583 56.0705V20.1507H5.29167ZM8.55133 84.6667C6.18067 84.6667 4.16278 83.8341 2.49767 82.169C0.832556 80.5039 0 78.4878 0 76.1206V18.4468C0 17.4166 0.164041 16.4465 0.492125 15.5363C0.820208 14.6262 1.3141 13.7883 1.97379 13.0228L10.2182 3.12738C10.9837 2.09374 11.9415 1.3141 13.0916 0.788459C14.2416 0.26282 15.4746 0 16.7905 0H67.6751C68.9875 0 70.2363 0.26282 71.4216 0.788459C72.607 1.3141 73.5824 2.09197 74.3479 3.12208L82.6929 13.2292C83.3526 13.9947 83.8465 14.8502 84.1745 15.7956C84.5026 16.7375 84.6667 17.7253 84.6667 18.759V76.1206C84.6667 78.4842 83.8341 80.5004 82.169 82.169C80.5039 83.8341 78.4878 84.6667 76.1206 84.6667H8.55133ZM7.3025 14.859H77.2583L70.2204 6.40292C69.8782 6.06425 69.4866 5.79438 69.0457 5.59329C68.6047 5.39221 68.1461 5.29167 67.6698 5.29167H16.891C16.4183 5.29167 15.9597 5.39397 15.5152 5.59858C15.0707 5.80319 14.6826 6.07483 14.351 6.4135L7.3025 14.859ZM31.7447 20.1507V47.4186L42.328 42.127L52.9114 47.4186V20.156L31.7447 20.1507Z" fill="#C2E105"/>
</svg>
