<svg width="25" height="25" viewBox="0 0 25 25" fill="none" xmlns="http://www.w3.org/2000/svg">
<path d="M6.81543 0.25C7.38412 0.25 7.92984 0.47589 8.33203 0.87793C8.7342 1.2801 8.96088 1.82579 8.96094 2.39453C8.96094 3.66544 9.13192 4.91645 9.47363 6.11426L9.62988 6.62402L9.63086 6.62598C9.88627 7.42111 9.67365 8.25093 9.08887 8.81055L7.41797 10.4824C9.07917 13.4549 11.5316 15.9069 14.5039 17.5684L16.1885 15.8857V15.8848C16.4677 15.6067 16.8183 15.4106 17.2012 15.3174C17.5361 15.2359 17.8851 15.2356 18.2188 15.3164L18.3604 15.3564L18.3652 15.3574C19.7278 15.8157 21.1534 16.0391 22.6055 16.0391C23.1742 16.0391 23.7199 16.2658 24.1221 16.668C24.5241 17.0702 24.75 17.6159 24.75 18.1846V22.6055C24.7499 23.1742 24.5242 23.7199 24.1221 24.1221C23.7199 24.5242 23.1742 24.7499 22.6055 24.75C10.2779 24.75 0.25 14.7221 0.25 2.39453C0.250054 1.82579 0.475762 1.2801 0.87793 0.87793C1.2801 0.475762 1.82579 0.250054 2.39453 0.25H6.81543ZM2.39453 2.0127C2.2934 2.01275 2.19651 2.05349 2.125 2.125C2.05349 2.19651 2.01275 2.2934 2.0127 2.39453C2.0127 13.7512 11.2488 22.9873 22.6055 22.9873C22.7066 22.9873 22.8035 22.9465 22.875 22.875C22.9465 22.8035 22.9873 22.7066 22.9873 22.6055V18.1846C22.9873 18.0834 22.9466 17.9856 22.875 17.9141C22.8035 17.8427 22.7065 17.8028 22.6055 17.8027C20.9644 17.8027 19.3603 17.5468 17.8203 17.0342C17.6748 16.9959 17.5322 17.0293 17.4258 17.1357L14.9639 19.623L14.835 19.7539L14.6719 19.6699C10.5332 17.5367 7.43829 14.4414 5.33008 10.3145L5.24707 10.1523L5.37598 10.0234L7.86426 7.54785C7.98758 7.42429 7.9928 7.27788 7.95703 7.17773L7.95508 7.17188C7.45414 5.64336 7.19727 4.03758 7.19727 2.39453C7.19721 2.2935 7.15732 2.19649 7.08594 2.125C7.01438 2.05344 6.91663 2.0127 6.81543 2.0127H2.39453Z" fill="#C2E105" stroke="#C2E105" stroke-width="0.5"/>
</svg>
