<svg width="26" height="26" viewBox="0 0 26 26" fill="none" xmlns="http://www.w3.org/2000/svg">
<path d="M16.2587 25.3676C13.4692 25.3635 10.7297 24.6271 8.31411 23.232C5.89854 21.8369 3.89159 19.8321 2.49397 17.418C1.09635 15.0039 0.357057 12.2652 0.350026 9.47571C0.342995 6.68624 1.06847 3.94381 2.4539 1.52271C2.63472 1.2097 2.88567 0.942909 3.18704 0.743296C3.4884 0.543682 3.83196 0.416692 4.1907 0.372308C4.56003 0.321672 4.93609 0.35751 5.28921 0.476999C5.64234 0.596489 5.96288 0.796362 6.22558 1.06087L10.6186 5.45533C10.8419 5.67825 11.0189 5.94298 11.1398 6.23439C11.2606 6.5258 11.3228 6.83817 11.3228 7.15363C11.3228 7.4691 11.2606 7.78147 11.1398 8.07288C11.0189 8.36429 10.8419 8.62902 10.6186 8.85194L10.2058 9.27179C9.69883 9.77998 9.41413 10.4685 9.41413 11.1863C9.41413 11.9041 9.69883 12.5927 10.2058 13.1009L12.6129 15.5094C13.129 16.0012 13.8146 16.2755 14.5275 16.2755C15.2404 16.2755 15.9259 16.0012 16.442 15.5094L16.8479 15.1035C17.299 14.654 17.91 14.4016 18.5469 14.4016C19.1838 14.4016 19.7947 14.654 20.2459 15.1035L24.6389 19.4966C24.9036 19.7595 25.1036 20.0802 25.2231 20.4336C25.3426 20.787 25.3784 21.1633 25.3275 21.5329C25.2827 21.8911 25.1555 22.2341 24.9559 22.535C24.7563 22.8358 24.4898 23.0864 24.1771 23.2669C21.768 24.6505 19.0368 25.375 16.2587 25.3676ZM4.51118 1.75083C4.46442 1.75128 4.41771 1.75409 4.37123 1.75922C4.22663 1.77678 4.0881 1.82778 3.96664 1.90819C3.84518 1.9886 3.74412 2.0962 3.67148 2.22246C2.08549 4.98781 1.45364 8.19824 1.87345 11.3583C2.29326 14.5184 3.74138 17.4526 5.99435 19.7079C8.24731 21.9633 11.1799 23.4145 14.3396 23.8377C17.4992 24.2608 20.7103 23.6324 23.4773 22.0493C23.6036 21.9767 23.7112 21.8756 23.7916 21.7542C23.872 21.6327 23.923 21.4942 23.9406 21.3496C23.9624 21.1927 23.9475 21.0329 23.897 20.8828C23.8465 20.7327 23.7617 20.5964 23.6495 20.4847L19.2564 16.0916C19.1632 15.9984 19.0526 15.9245 18.9309 15.8741C18.8091 15.8237 18.6786 15.7977 18.5469 15.7977C18.4151 15.7977 18.2846 15.8237 18.1629 15.8741C18.0411 15.9245 17.9305 15.9984 17.8373 16.0916L17.4315 16.4975C16.649 17.244 15.609 17.6605 14.5275 17.6605C13.446 17.6605 12.406 17.244 11.6235 16.4975L9.21074 14.0847C8.44286 13.3136 8.01175 12.2697 8.01175 11.1814C8.01175 10.0932 8.44286 9.04926 9.21074 8.27814L9.63059 7.85829C9.72377 7.76511 9.79769 7.65449 9.84812 7.53274C9.89855 7.411 9.9245 7.28051 9.9245 7.14874C9.9245 7.01696 9.89855 6.88647 9.84812 6.76473C9.79769 6.64298 9.72377 6.53236 9.63059 6.43918L5.23613 2.05032C5.14098 1.9551 5.02796 1.87963 4.90354 1.82823C4.77913 1.77683 4.64579 1.75053 4.51118 1.75083Z" fill="black" stroke="black" stroke-width="0.7"/>
</svg>
