<svg width="14" height="13" viewBox="0 0 14 13" fill="none" xmlns="http://www.w3.org/2000/svg">
<path d="M6.73816 10.7831L3.47175 12.7508C3.32745 12.8427 3.17659 12.882 3.01917 12.8689C2.86175 12.8558 2.72401 12.8033 2.60595 12.7115C2.48789 12.6196 2.39606 12.505 2.33047 12.3675C2.26488 12.23 2.25176 12.0758 2.29112 11.9047L3.15691 8.18572L0.264364 5.68671C0.133183 5.56865 0.0513253 5.43406 0.0187924 5.28294C-0.0137406 5.13181 -0.00403325 4.98437 0.0479146 4.84059C0.0998624 4.69682 0.178571 4.57875 0.284041 4.4864C0.389511 4.39405 0.53381 4.33502 0.716939 4.30931L4.53432 3.9748L6.01011 0.472253C6.0757 0.314835 6.1775 0.196772 6.3155 0.118063C6.4535 0.0393543 6.59439 0 6.73816 0C6.88194 0 7.02283 0.0393543 7.16083 0.118063C7.29883 0.196772 7.40063 0.314835 7.46622 0.472253L8.94201 3.9748L12.7594 4.30931C12.943 4.33554 13.0873 4.39458 13.1923 4.4864C13.2972 4.57823 13.3759 4.69629 13.4284 4.84059C13.4809 4.98489 13.4909 5.1326 13.4583 5.28372C13.4258 5.43484 13.3437 5.56917 13.212 5.68671L10.3194 8.18572L11.1852 11.9047C11.2246 12.0752 11.2114 12.2295 11.1459 12.3675C11.0803 12.5055 10.9884 12.6202 10.8704 12.7115C10.7523 12.8028 10.6146 12.8552 10.4572 12.8689C10.2997 12.8825 10.1489 12.8432 10.0046 12.7508L6.73816 10.7831Z" fill="#EECB07"/>
</svg>
