<svg width="82" height="82" viewBox="0 0 82 82" fill="none" xmlns="http://www.w3.org/2000/svg">
<path d="M38.0157 61.8603V11.2702L24.3885 24.8974L20.2477 20.6981L40.94 0L61.6381 20.6981L57.4973 24.9032L43.8643 11.2702V61.8603H38.0157ZM9.45129 81.8799C6.75705 81.8799 4.50924 80.9793 2.70789 79.1779C0.906527 77.3765 0.00389905 75.1268 0 72.4287V58.2576H5.84857V72.4287C5.84857 73.3293 6.22288 74.1559 6.97149 74.9085C7.72011 75.661 8.54476 76.0353 9.44544 76.0314H72.4345C73.3313 76.0314 74.1559 75.6571 74.9085 74.9085C75.661 74.1598 76.0353 73.3332 76.0314 72.4287V58.2576H81.8799V72.4287C81.8799 75.1229 80.9793 77.3707 79.1779 79.1721C77.3765 80.9734 75.1268 81.876 72.4287 81.8799H9.45129Z" fill="#C2E105"/>
</svg>
