<svg width="23" height="23" viewBox="0 0 23 23" fill="none" xmlns="http://www.w3.org/2000/svg">
<path d="M11.5 12.7738L2.06166 22.2121C1.89374 22.3801 1.68744 22.47 1.44275 22.482C1.19807 22.494 0.979773 22.404 0.787864 22.2121C0.595954 22.0202 0.5 21.8079 0.5 21.5752C0.5 21.3425 0.595954 21.1302 0.787864 20.9383L10.2262 11.5L0.787864 2.06166C0.619943 1.89374 0.529985 1.68744 0.517991 1.44275C0.505997 1.19807 0.595954 0.979773 0.787864 0.787864C0.979773 0.595954 1.19207 0.5 1.42476 0.5C1.65745 0.5 1.86975 0.595954 2.06166 0.787864L11.5 10.2262L20.9383 0.787864C21.1063 0.619943 21.3132 0.529985 21.559 0.517991C21.8025 0.505997 22.0202 0.595954 22.2121 0.787864C22.404 0.979773 22.5 1.19207 22.5 1.42476C22.5 1.65745 22.404 1.86975 22.2121 2.06166L12.7738 11.5L22.2121 20.9383C22.3801 21.1063 22.47 21.3132 22.482 21.559C22.494 21.8025 22.404 22.0202 22.2121 22.2121C22.0202 22.404 21.8079 22.5 21.5752 22.5C21.3425 22.5 21.1302 22.404 20.9383 22.2121L11.5 12.7738Z" fill="white" stroke="white"/>
</svg>
